<svg width="148" height="30" viewBox="0 0 148 30" fill="none" xmlns="http://www.w3.org/2000/svg">
<path d="M13.608 6.152V9.44H9.144V23H5.04V9.44H0.576V6.152H13.608ZM21.7637 23.192C20.4517 23.192 19.2677 22.912 18.2117 22.352C17.1717 21.792 16.3477 20.992 15.7397 19.952C15.1477 18.912 14.8517 17.696 14.8517 16.304C14.8517 14.928 15.1557 13.72 15.7637 12.68C16.3717 11.624 17.2037 10.816 18.2597 10.256C19.3157 9.696 20.4997 9.416 21.8117 9.416C23.1237 9.416 24.3077 9.696 25.3637 10.256C26.4197 10.816 27.2517 11.624 27.8597 12.68C28.4677 13.72 28.7717 14.928 28.7717 16.304C28.7717 17.68 28.4597 18.896 27.8357 19.952C27.2277 20.992 26.3877 21.792 25.3157 22.352C24.2597 22.912 23.0757 23.192 21.7637 23.192ZM21.7637 19.64C22.5477 19.64 23.2117 19.352 23.7557 18.776C24.3157 18.2 24.5957 17.376 24.5957 16.304C24.5957 15.232 24.3237 14.408 23.7797 13.832C23.2517 13.256 22.5957 12.968 21.8117 12.968C21.0117 12.968 20.3477 13.256 19.8197 13.832C19.2917 14.392 19.0277 15.216 19.0277 16.304C19.0277 17.376 19.2837 18.2 19.7957 18.776C20.3237 19.352 20.9797 19.64 21.7637 19.64ZM30.1329 16.28C30.1329 14.904 30.3889 13.696 30.9009 12.656C31.4289 11.616 32.1409 10.816 33.0369 10.256C33.9329 9.696 34.9329 9.416 36.0369 9.416C36.9169 9.416 37.7169 9.6 38.4369 9.968C39.1729 10.336 39.7489 10.832 40.1649 11.456V5.24H44.2689V23H40.1649V21.08C39.7809 21.72 39.2289 22.232 38.5089 22.616C37.8049 23 36.9809 23.192 36.0369 23.192C34.9329 23.192 33.9329 22.912 33.0369 22.352C32.1409 21.776 31.4289 20.968 30.9009 19.928C30.3889 18.872 30.1329 17.656 30.1329 16.28ZM40.1649 16.304C40.1649 15.28 39.8769 14.472 39.3009 13.88C38.7409 13.288 38.0529 12.992 37.2369 12.992C36.4209 12.992 35.7249 13.288 35.1489 13.88C34.5889 14.456 34.3089 15.256 34.3089 16.28C34.3089 17.304 34.5889 18.12 35.1489 18.728C35.7249 19.32 36.4209 19.616 37.2369 19.616C38.0529 19.616 38.7409 19.32 39.3009 18.728C39.8769 18.136 40.1649 17.328 40.1649 16.304ZM53.334 23.192C52.022 23.192 50.838 22.912 49.782 22.352C48.742 21.792 47.918 20.992 47.31 19.952C46.718 18.912 46.422 17.696 46.422 16.304C46.422 14.928 46.726 13.72 47.334 12.68C47.942 11.624 48.774 10.816 49.83 10.256C50.886 9.696 52.07 9.416 53.382 9.416C54.694 9.416 55.878 9.696 56.934 10.256C57.99 10.816 58.822 11.624 59.43 12.68C60.038 13.72 60.342 14.928 60.342 16.304C60.342 17.68 60.03 18.896 59.406 19.952C58.798 20.992 57.958 21.792 56.886 22.352C55.83 22.912 54.646 23.192 53.334 23.192ZM53.334 19.64C54.118 19.64 54.782 19.352 55.326 18.776C55.886 18.2 56.166 17.376 56.166 16.304C56.166 15.232 55.894 14.408 55.35 13.832C54.822 13.256 54.166 12.968 53.382 12.968C52.582 12.968 51.918 13.256 51.39 13.832C50.862 14.392 50.598 15.216 50.598 16.304C50.598 17.376 50.854 18.2 51.366 18.776C51.894 19.352 52.55 19.64 53.334 19.64ZM67.9673 23.192C66.7993 23.192 65.7593 22.992 64.8473 22.592C63.9353 22.192 63.2153 21.648 62.6873 20.96C62.1593 20.256 61.8633 19.472 61.7993 18.608H65.8553C65.9033 19.072 66.1193 19.448 66.5033 19.736C66.8873 20.024 67.3593 20.168 67.9193 20.168C68.4313 20.168 68.8233 20.072 69.0953 19.88C69.3833 19.672 69.5273 19.408 69.5273 19.088C69.5273 18.704 69.3273 18.424 68.9273 18.248C68.5273 18.056 67.8793 17.848 66.9833 17.624C66.0233 17.4 65.2233 17.168 64.5833 16.928C63.9433 16.672 63.3913 16.28 62.9273 15.752C62.4633 15.208 62.2313 14.48 62.2313 13.568C62.2313 12.8 62.4393 12.104 62.8553 11.48C63.2873 10.84 63.9113 10.336 64.7273 9.968C65.5593 9.6 66.5433 9.416 67.6793 9.416C69.3593 9.416 70.6793 9.832 71.6393 10.664C72.6153 11.496 73.1753 12.6 73.3193 13.976H69.5273C69.4633 13.512 69.2553 13.144 68.9033 12.872C68.5673 12.6 68.1193 12.464 67.5593 12.464C67.0793 12.464 66.7113 12.56 66.4553 12.752C66.1993 12.928 66.0713 13.176 66.0713 13.496C66.0713 13.88 66.2713 14.168 66.6713 14.36C67.0873 14.552 67.7273 14.744 68.5913 14.936C69.5833 15.192 70.3913 15.448 71.0153 15.704C71.6393 15.944 72.1833 16.344 72.6473 16.904C73.1273 17.448 73.3753 18.184 73.3913 19.112C73.3913 19.896 73.1673 20.6 72.7193 21.224C72.2873 21.832 71.6553 22.312 70.8233 22.664C70.0073 23.016 69.0553 23.192 67.9673 23.192ZM91.476 20.024H85.188L84.18 23H79.884L85.98 6.152H90.732L96.828 23H92.484L91.476 20.024ZM90.42 16.856L88.332 10.688L86.268 16.856H90.42ZM102.787 11.504C103.187 10.88 103.739 10.376 104.443 9.992C105.147 9.608 105.971 9.416 106.915 9.416C108.019 9.416 109.019 9.696 109.915 10.256C110.811 10.816 111.515 11.616 112.027 12.656C112.555 13.696 112.819 14.904 112.819 16.28C112.819 17.656 112.555 18.872 112.027 19.928C111.515 20.968 110.811 21.776 109.915 22.352C109.019 22.912 108.019 23.192 106.915 23.192C105.987 23.192 105.163 23 104.443 22.616C103.739 22.232 103.187 21.736 102.787 21.128V29.384H98.6833V9.608H102.787V11.504ZM108.643 16.28C108.643 15.256 108.355 14.456 107.779 13.88C107.219 13.288 106.523 12.992 105.691 12.992C104.875 12.992 104.179 13.288 103.603 13.88C103.043 14.472 102.763 15.28 102.763 16.304C102.763 17.328 103.043 18.136 103.603 18.728C104.179 19.32 104.875 19.616 105.691 19.616C106.507 19.616 107.203 19.32 107.779 18.728C108.355 18.12 108.643 17.304 108.643 16.28ZM119.076 11.504C119.476 10.88 120.028 10.376 120.732 9.992C121.436 9.608 122.26 9.416 123.204 9.416C124.308 9.416 125.308 9.696 126.204 10.256C127.1 10.816 127.804 11.616 128.316 12.656C128.844 13.696 129.108 14.904 129.108 16.28C129.108 17.656 128.844 18.872 128.316 19.928C127.804 20.968 127.1 21.776 126.204 22.352C125.308 22.912 124.308 23.192 123.204 23.192C122.276 23.192 121.452 23 120.732 22.616C120.028 22.232 119.476 21.736 119.076 21.128V29.384H114.972V9.608H119.076V11.504ZM124.932 16.28C124.932 15.256 124.644 14.456 124.068 13.88C123.508 13.288 122.812 12.992 121.98 12.992C121.164 12.992 120.468 13.288 119.892 13.88C119.332 14.472 119.052 15.28 119.052 16.304C119.052 17.328 119.332 18.136 119.892 18.728C120.468 19.32 121.164 19.616 121.98 19.616C122.796 19.616 123.492 19.32 124.068 18.728C124.644 18.12 124.932 17.304 124.932 16.28Z" fill="black"/>
<path d="M133.181 23.192C132.461 23.192 131.869 22.984 131.405 22.568C130.957 22.136 130.733 21.608 130.733 20.984C130.733 20.344 130.957 19.808 131.405 19.376C131.869 18.944 132.461 18.728 133.181 18.728C133.885 18.728 134.461 18.944 134.909 19.376C135.373 19.808 135.605 20.344 135.605 20.984C135.605 21.608 135.373 22.136 134.909 22.568C134.461 22.984 133.885 23.192 133.181 23.192ZM147.179 0.199999L140.747 27.488H136.787L143.219 0.199999H147.179Z" fill="#EBC230"/>
</svg>
